<svg width="1384" height="8" viewBox="0 0 1384 8" fill="none" xmlns="http://www.w3.org/2000/svg">
<circle cx="4" cy="4" r="4" fill="#e6f1fe"/>
<circle cx="20" cy="4" r="4" fill="#e6f1fe"/>
<circle cx="36" cy="4" r="4" fill="#e6f1fe"/>
<circle cx="52" cy="4" r="4" fill="#e6f1fe"/>
<circle cx="68" cy="4" r="4" fill="#e6f1fe"/>
<circle cx="84" cy="4" r="4" fill="#e6f1fe"/>
<circle cx="100" cy="4" r="4" fill="#e6f1fe"/>
<circle cx="116" cy="4" r="4" fill="#e6f1fe"/>
<circle cx="132" cy="4" r="4" fill="#e6f1fe"/>
<circle cx="148" cy="4" r="4" fill="#e6f1fe"/>
<circle cx="164" cy="4" r="4" fill="#e6f1fe"/>
<circle cx="180" cy="4" r="4" fill="#e6f1fe"/>
<circle cx="196" cy="4" r="4" fill="#e6f1fe"/>
<circle cx="212" cy="4" r="4" fill="#e6f1fe"/>
<circle cx="228" cy="4" r="4" fill="#e6f1fe"/>
<circle cx="244" cy="4" r="4" fill="#e6f1fe"/>
<circle cx="260" cy="4" r="4" fill="#e6f1fe"/>
<circle cx="276" cy="4" r="4" fill="#e6f1fe"/>
<circle cx="292" cy="4" r="4" fill="#e6f1fe"/>
<circle cx="308" cy="4" r="4" fill="#e6f1fe"/>
<circle cx="324" cy="4" r="4" fill="#e6f1fe"/>
<circle cx="340" cy="4" r="4" fill="#e6f1fe"/>
<circle cx="356" cy="4" r="4" fill="#e6f1fe"/>
<circle cx="372" cy="4" r="4" fill="#e6f1fe"/>
<circle cx="388" cy="4" r="4" fill="#e6f1fe"/>
<circle cx="404" cy="4" r="4" fill="#e6f1fe"/>
<circle cx="420" cy="4" r="4" fill="#e6f1fe"/>
<circle cx="436" cy="4" r="4" fill="#e6f1fe"/>
<circle cx="452" cy="4" r="4" fill="#e6f1fe"/>
<circle cx="468" cy="4" r="4" fill="#e6f1fe"/>
<circle cx="484" cy="4" r="4" fill="#e6f1fe"/>
<circle cx="500" cy="4" r="4" fill="#e6f1fe"/>
<circle cx="516" cy="4" r="4" fill="#e6f1fe"/>
<circle cx="532" cy="4" r="4" fill="#e6f1fe"/>
<circle cx="548" cy="4" r="4" fill="#e6f1fe"/>
<circle cx="564" cy="4" r="4" fill="#e6f1fe"/>
<circle cx="580" cy="4" r="4" fill="#e6f1fe"/>
<circle cx="596" cy="4" r="4" fill="#e6f1fe"/>
<circle cx="612" cy="4" r="4" fill="#e6f1fe"/>
<circle cx="628" cy="4" r="4" fill="#e6f1fe"/>
<circle cx="644" cy="4" r="4" fill="#e6f1fe"/>
<circle cx="660" cy="4" r="4" fill="#e6f1fe"/>
<circle cx="676" cy="4" r="4" fill="#e6f1fe"/>
<circle cx="692" cy="4" r="4" fill="#e6f1fe"/>
<circle cx="708" cy="4" r="4" fill="#e6f1fe"/>
<circle cx="724" cy="4" r="4" fill="#e6f1fe"/>
<circle cx="740" cy="4" r="4" fill="#e6f1fe"/>
<circle cx="756" cy="4" r="4" fill="#e6f1fe"/>
<circle cx="772" cy="4" r="4" fill="#e6f1fe"/>
<circle cx="788" cy="4" r="4" fill="#e6f1fe"/>
<circle cx="804" cy="4" r="4" fill="#e6f1fe"/>
<circle cx="820" cy="4" r="4" fill="#e6f1fe"/>
<circle cx="836" cy="4" r="4" fill="#e6f1fe"/>
<circle cx="852" cy="4" r="4" fill="#e6f1fe"/>
<circle cx="868" cy="4" r="4" fill="#e6f1fe"/>
<circle cx="884" cy="4" r="4" fill="#e6f1fe"/>
<circle cx="900" cy="4" r="4" fill="#e6f1fe"/>
<circle cx="916" cy="4" r="4" fill="#e6f1fe"/>
<circle cx="932" cy="4" r="4" fill="#e6f1fe"/>
<circle cx="948" cy="4" r="4" fill="#e6f1fe"/>
<circle cx="964" cy="4" r="4" fill="#e6f1fe"/>
<circle cx="980" cy="4" r="4" fill="#e6f1fe"/>
<circle cx="996" cy="4" r="4" fill="#e6f1fe"/>
<circle cx="1012" cy="4" r="4" fill="#e6f1fe"/>
<circle cx="1028" cy="4" r="4" fill="#e6f1fe"/>
<circle cx="1044" cy="4" r="4" fill="#e6f1fe"/>
<circle cx="1060" cy="4" r="4" fill="#e6f1fe"/>
<circle cx="1076" cy="4" r="4" fill="#e6f1fe"/>
<circle cx="1092" cy="4" r="4" fill="#e6f1fe"/>
<circle cx="1108" cy="4" r="4" fill="#e6f1fe"/>
<circle cx="1124" cy="4" r="4" fill="#e6f1fe"/>
<circle cx="1140" cy="4" r="4" fill="#e6f1fe"/>
<circle cx="1156" cy="4" r="4" fill="#e6f1fe"/>
<circle cx="1172" cy="4" r="4" fill="#e6f1fe"/>
<circle cx="1188" cy="4" r="4" fill="#e6f1fe"/>
<circle cx="1204" cy="4" r="4" fill="#e6f1fe"/>
<circle cx="1220" cy="4" r="4" fill="#e6f1fe"/>
<circle cx="1236" cy="4" r="4" fill="#e6f1fe"/>
<circle cx="1252" cy="4" r="4" fill="#e6f1fe"/>
<circle cx="1268" cy="4" r="4" fill="#e6f1fe"/>
<circle cx="1284" cy="4" r="4" fill="#e6f1fe"/>
<circle cx="1300" cy="4" r="4" fill="#e6f1fe"/>
<circle cx="1316" cy="4" r="4" fill="#e6f1fe"/>
<circle cx="1332" cy="4" r="4" fill="#e6f1fe"/>
<circle cx="1348" cy="4" r="4" fill="#e6f1fe"/>
<circle cx="1364" cy="4" r="4" fill="#e6f1fe"/>
<circle cx="1380" cy="4" r="4" fill="#e6f1fe"/>
</svg>
