<svg width="104" height="75" viewBox="0 0 104 75" fill="none" xmlns="http://www.w3.org/2000/svg">
<path d="M4.92188 67.4688H0.703125C0.315 67.4688 0 67.1537 0 66.7656C0 66.3775 0.315 66.0625 0.703125 66.0625H4.92188C5.31 66.0625 5.625 66.3775 5.625 66.7656C5.625 67.1537 5.31 67.4688 4.92188 67.4688Z" fill="#263238"/>
<path d="M89.2969 67.4688H7.73438C7.34625 67.4688 7.03125 67.1537 7.03125 66.7656C7.03125 66.3775 7.34625 66.0625 7.73438 66.0625H89.2969C89.685 66.0625 90 66.3775 90 66.7656C90 67.1537 89.685 67.4688 89.2969 67.4688Z" fill="#263238"/>
<path d="M73.125 67.4688C67.6983 67.4688 63.2812 63.0531 63.2812 57.625C63.2812 52.1969 67.6983 47.7812 73.125 47.7812C78.5517 47.7812 82.9688 52.1969 82.9688 57.625C82.9688 63.0531 78.5517 67.4688 73.125 67.4688ZM73.125 49.1875C68.4717 49.1875 64.6875 52.9717 64.6875 57.625C64.6875 62.2783 68.4717 66.0625 73.125 66.0625C77.7783 66.0625 81.5625 62.2783 81.5625 57.625C81.5625 52.9717 77.7783 49.1875 73.125 49.1875Z" fill="#263238"/>
<path d="M73.125 63.25C70.0228 63.25 67.5 60.7272 67.5 57.625C67.5 54.5228 70.0228 52 73.125 52C76.2272 52 78.75 54.5228 78.75 57.625C78.75 60.7272 76.2272 63.25 73.125 63.25ZM73.125 53.4062C70.7991 53.4062 68.9062 55.2991 68.9062 57.625C68.9062 59.9509 70.7991 61.8438 73.125 61.8438C75.4509 61.8438 77.3438 59.9509 77.3438 57.625C77.3438 55.2991 75.4509 53.4062 73.125 53.4062Z" fill="#263238"/>
<path d="M18.2812 67.4688C12.8545 67.4688 8.4375 63.0531 8.4375 57.625C8.4375 52.1969 12.8545 47.7812 18.2812 47.7812C23.708 47.7812 28.125 52.1969 28.125 57.625C28.125 63.0531 23.708 67.4688 18.2812 67.4688ZM18.2812 49.1875C13.628 49.1875 9.84375 52.9717 9.84375 57.625C9.84375 62.2783 13.628 66.0625 18.2812 66.0625C22.9345 66.0625 26.7188 62.2783 26.7188 57.625C26.7188 52.9717 22.9345 49.1875 18.2812 49.1875Z" fill="#263238"/>
<path d="M6.52641 60.4375H4.21875C1.89281 60.4375 0 58.5447 0 56.2188V19.6562C0 17.3303 1.89281 15.4375 4.21875 15.4375H76.6252C80.2786 15.4375 83.3822 17.928 84.1753 21.4942L89.6484 46.1219C89.8819 47.1723 90 48.2495 90 49.3239V56.1667C90 58.4927 88.1072 60.3855 85.7812 60.3855H85.0781C84.69 60.3855 84.375 60.0705 84.375 59.6823C84.375 59.2942 84.69 58.9792 85.0781 58.9792H85.7812C87.3323 58.9792 88.5938 57.7178 88.5938 56.1667V49.3239C88.5938 48.3522 88.4869 47.3762 88.2745 46.4256L82.8014 21.798C82.1545 18.8814 79.6134 16.8438 76.6252 16.8438H4.21875C2.66766 16.8438 1.40625 18.1052 1.40625 19.6562V56.2188C1.40625 57.7698 2.66766 59.0312 4.21875 59.0312H6.52641C6.91453 59.0312 7.22953 59.3462 7.22953 59.7344C7.22953 60.1225 6.91453 60.4375 6.52641 60.4375Z" fill="#263238"/>
<path d="M61.3688 60.4375H30.0376C29.6495 60.4375 29.3345 60.1225 29.3345 59.7344C29.3345 59.3462 29.6495 59.0312 30.0376 59.0312H61.3688C61.757 59.0312 62.072 59.3462 62.072 59.7344C62.072 60.1225 61.757 60.4375 61.3688 60.4375Z" fill="#263238"/>
<path d="M18.2812 63.25C15.1791 63.25 12.6562 60.7272 12.6562 57.625C12.6562 54.5228 15.1791 52 18.2812 52C21.3834 52 23.9062 54.5228 23.9062 57.625C23.9062 60.7272 21.3834 63.25 18.2812 63.25ZM18.2812 53.4062C15.9553 53.4062 14.0625 55.2991 14.0625 57.625C14.0625 59.9509 15.9553 61.8438 18.2812 61.8438C20.6072 61.8438 22.5 59.9509 22.5 57.625C22.5 55.2991 20.6072 53.4062 18.2812 53.4062Z" fill="#263238"/>
<path d="M84.5212 43.5625H88.3589L83.4891 21.6461C83.3892 21.1961 83.2373 20.7686 83.0587 20.3594H0.703125V33.0156H71.8453C74.1966 33.0156 76.3917 34.1913 77.6953 36.1459L81.5962 41.9959C82.2473 42.9747 83.3456 43.5625 84.5212 43.5625Z" fill="#3E7EEB"/>
<path d="M88.3589 44.2656H84.5212C83.108 44.2656 81.7959 43.5625 81.0112 42.3869L77.1117 36.5369C75.9347 34.772 73.9673 33.7188 71.8453 33.7188H0.703125C0.315 33.7188 0 33.4038 0 33.0156V20.3594C0 19.9712 0.315 19.6562 0.703125 19.6562H83.0573C83.3358 19.6562 83.5889 19.8222 83.7014 20.0767C83.9166 20.5703 84.0727 21.0344 84.1753 21.4942L89.0452 43.4092C89.0901 43.6173 89.0409 43.8353 88.9059 44.0013C88.7737 44.1686 88.5712 44.2656 88.3589 44.2656ZM1.40625 32.3125H71.8453C74.4384 32.3125 76.8445 33.6006 78.2803 35.7564L82.1798 41.6064C82.703 42.3911 83.5777 42.8594 84.5198 42.8594H87.4814L82.8014 21.7994C82.748 21.5603 82.6762 21.3156 82.5834 21.0625H1.40625V32.3125Z" fill="#263238"/>
<path d="M82.2023 36.0039C81.8802 36.0039 81.5877 35.7803 81.516 35.4527L79.1324 24.73C79.048 24.3503 79.2871 23.9749 79.6668 23.8905C80.0493 23.8103 80.4219 24.0466 80.5063 24.4249L82.8899 35.1475C82.9743 35.5272 82.7352 35.9027 82.3555 35.987C82.3035 35.9983 82.2515 36.0039 82.2023 36.0039Z" fill="#263238"/>
<path d="M59.7656 54.1094H48.5156C47.7394 54.1094 47.1094 53.4794 47.1094 52.7031V20.3594H61.1719V52.7031C61.1719 53.4794 60.5419 54.1094 59.7656 54.1094Z" fill="#3E7EEB"/>
<path d="M59.7656 54.8125H48.5156C47.3527 54.8125 46.4062 53.8661 46.4062 52.7031V20.3594C46.4062 19.9712 46.7212 19.6562 47.1094 19.6562H61.1719C61.56 19.6562 61.875 19.9712 61.875 20.3594V52.7031C61.875 53.8661 60.9286 54.8125 59.7656 54.8125ZM47.8125 21.0625V52.7031C47.8125 53.0913 48.1289 53.4062 48.5156 53.4062H59.7656C60.1523 53.4062 60.4688 53.0913 60.4688 52.7031V21.0625H47.8125Z" fill="#263238"/>
<path d="M31.6406 33.7188C31.2525 33.7188 30.9375 33.4038 30.9375 33.0156V20.3594C30.9375 19.9712 31.2525 19.6562 31.6406 19.6562C32.0287 19.6562 32.3438 19.9712 32.3438 20.3594V33.0156C32.3438 33.4038 32.0287 33.7188 31.6406 33.7188Z" fill="#263238"/>
<path d="M16.1719 33.7188C15.7837 33.7188 15.4688 33.4038 15.4688 33.0156V20.3594C15.4688 19.9712 15.7837 19.6562 16.1719 19.6562C16.56 19.6562 16.875 19.9712 16.875 20.3594V33.0156C16.875 33.4038 16.56 33.7188 16.1719 33.7188Z" fill="#263238"/>
<path d="M88.594 29.5C88.2059 29.5 87.8909 29.185 87.8909 28.7969V21.7656C87.8909 21.3775 87.5745 21.0625 87.1878 21.0625H83.0576C82.6695 21.0625 82.3545 20.7475 82.3545 20.3594C82.3545 19.9712 82.6695 19.6562 83.0576 19.6562H87.1878C88.3507 19.6562 89.2971 20.6027 89.2971 21.7656V28.7969C89.2971 29.185 88.9821 29.5 88.594 29.5Z" fill="#263238"/>
<path d="M89.2336 55.5156H86.4211C85.2582 55.5156 84.3118 54.5692 84.3118 53.4062V49.8906C84.3118 48.7277 85.2582 47.7812 86.4211 47.7812H89.2336C89.6218 47.7812 89.9368 48.0962 89.9368 48.4844V54.8125C89.9368 55.2006 89.6218 55.5156 89.2336 55.5156ZM86.4211 49.1875C86.0344 49.1875 85.718 49.5025 85.718 49.8906V53.4062C85.718 53.7944 86.0344 54.1094 86.4211 54.1094H88.5305V49.1875H86.4211Z" fill="#263238"/>
<path d="M27.7095 11.8125H24.897C24.5088 11.8125 24.1938 11.4975 24.1938 11.1094C24.1938 10.7212 24.5088 10.4062 24.897 10.4062H27.7095C28.0976 10.4062 28.4126 10.7212 28.4126 11.1094C28.4126 11.4975 28.0976 11.8125 27.7095 11.8125Z" fill="#263238"/>
<path d="M53.022 11.8125H30.522C30.1338 11.8125 29.8188 11.4975 29.8188 11.1094C29.8188 10.7212 30.1338 10.4062 30.522 10.4062H53.022C53.4101 10.4062 53.7251 10.7212 53.7251 11.1094C53.7251 11.4975 53.4101 11.8125 53.022 11.8125Z" fill="#263238"/>
<path d="M60.0532 7.59375H36.147C35.7588 7.59375 35.4438 7.27875 35.4438 6.89062C35.4438 6.5025 35.7588 6.1875 36.147 6.1875H60.0532C60.4413 6.1875 60.7563 6.5025 60.7563 6.89062C60.7563 7.27875 60.4413 7.59375 60.0532 7.59375Z" fill="#263238"/>
<circle cx="86.5625" cy="19" r="16.4688" fill="white" stroke="#263238" stroke-width="1.9375"/>
<g clip-path="url(#clip0_2171_17285)">
<path d="M96.0478 15.9201C95.9556 15.7319 95.7643 15.6125 95.5548 15.6125H93.5922C93.289 15.6125 93.0432 15.8582 93.0432 16.1614V17.3244H92.2622V16.1588C92.2622 15.8567 92.018 15.6112 91.7159 15.6099L90.5062 15.6041L89.7519 13.8938C89.6643 13.6949 89.4671 13.5664 89.2497 13.5664H86.3018V12.1604H87.8512C88.1544 12.1604 88.4002 11.9147 88.4002 11.6115C88.4002 11.3082 88.1544 11.0625 87.8512 11.0625H81.3373C81.034 11.0625 80.7883 11.3082 80.7883 11.6115C80.7883 11.9147 81.034 12.1604 81.3373 12.1604H83.2309V13.5664H80.6484C80.4504 13.5664 80.2677 13.6731 80.1704 13.8455L79.6181 14.8242H79.242C78.2471 14.8242 77.4377 15.6336 77.4377 16.6285V17.8254H76.1702C76.1235 17.8254 76.0789 17.8331 76.0354 17.8441V14.8982C76.0354 14.5949 75.7897 14.3492 75.4865 14.3492C75.1832 14.3492 74.9375 14.5949 74.9375 14.8982V21.6624C74.9375 21.9657 75.1832 22.2114 75.4865 22.2114C75.7897 22.2114 76.0354 21.9657 76.0354 21.6624V18.9045C76.0787 18.9155 76.1235 18.9231 76.1702 18.9231H77.4375V21.5843C77.4375 22.5922 78.2574 23.4119 79.2653 23.4119H81.0265L83.0996 25.4847C83.2026 25.5877 83.3421 25.6455 83.4879 25.6455H91.7134C92.0167 25.6455 92.2624 25.3998 92.2624 25.0965V23.5153L93.0435 23.5138V24.5504C93.0435 24.8532 93.2885 25.0989 93.5915 25.0994L95.5959 25.1029H95.5968C95.8054 25.1029 95.996 24.9845 96.0886 24.7977C96.1216 24.7309 96.8961 23.1354 96.8961 20.2837C96.8958 17.6821 96.0825 15.9906 96.0478 15.9201ZM84.3289 12.1604H85.2039V13.5664H84.3289V12.1604ZM95.2277 24.0043L94.1412 24.0023V22.9639C94.1412 22.8181 94.0832 22.6782 93.9802 22.5753C93.8772 22.4725 93.7378 22.415 93.5922 22.415C93.592 22.415 93.5915 22.415 93.5913 22.415L91.7124 22.4183C91.4093 22.4187 91.1643 22.6644 91.1643 22.9672V24.5476H83.7151L81.642 22.4747C81.5391 22.3717 81.3996 22.3139 81.2538 22.3139H79.2653C78.8628 22.3139 78.5354 21.9865 78.5354 21.5843V16.6285C78.5354 16.239 78.8522 15.9221 79.2418 15.9221H79.9385C80.1366 15.9221 80.3193 15.8154 80.4165 15.643L80.9688 14.6643H88.892L89.6454 16.3727C89.7326 16.571 89.9285 16.6992 90.145 16.7003L91.1645 16.7051V17.8733C91.1645 18.1766 91.4102 18.4223 91.7134 18.4223H93.5924C93.8957 18.4223 94.1414 18.1766 94.1414 17.8733V16.7104H95.1897C95.4003 17.2673 95.7979 18.5481 95.7979 20.2839C95.7979 22.1739 95.4268 23.4536 95.2277 24.0043Z" fill="#FF7750"/>
<path d="M79.4582 15.1253L78.1665 15.7712V22.2295L78.8123 22.8753H81.3957L83.979 24.8128H91.729V22.8753H93.6665V24.8128H94.9582C97.0248 22.2295 96.2498 18.1392 95.604 16.417H93.6665V17.7087H91.729V16.417H90.4373L89.1457 14.4795H80.7498H80.104L79.4582 15.1253Z" fill="#FF7750"/>
</g>
<defs>
<clipPath id="clip0_2171_17285">
<rect width="21.9583" height="21.9583" fill="white" transform="translate(74.9375 7.375)"/>
</clipPath>
</defs>
</svg>
