<svg width="73" height="90" viewBox="0 0 73 90" fill="none" xmlns="http://www.w3.org/2000/svg">
<path d="M60.0818 59.2274H62.1599C64.2381 59.0542 68.9139 57.1492 68.9139 51.9539" stroke="black" stroke-linecap="round" stroke-dasharray="2 2"/>
<path fill-rule="evenodd" clip-rule="evenodd" d="M21.136 37.4071C21.136 37.0749 21.1541 36.7543 21.1888 36.445C21.2195 36.1706 21.467 35.9731 21.7414 36.0039C22.0158 36.0346 22.2133 36.282 22.1825 36.5565C22.1521 36.8279 22.136 37.1113 22.136 37.4071C22.136 37.7114 22.1499 38.0016 22.1763 38.2782C22.2026 38.5531 22.001 38.7972 21.7261 38.8235C21.4512 38.8497 21.2071 38.6481 21.1809 38.3732C21.1513 38.0638 21.136 37.7419 21.136 37.4071ZM21.9311 35.2071C21.6736 35.1073 21.5458 34.8176 21.6457 34.5601C21.8924 33.9239 22.2169 33.3586 22.5927 32.8597C22.7588 32.6391 23.0723 32.595 23.2929 32.7611C23.5135 32.9273 23.5576 33.2408 23.3915 33.4613C23.068 33.8908 22.7898 34.3757 22.578 34.9217C22.4782 35.1792 22.1885 35.3069 21.9311 35.2071ZM23.8678 32.1783C23.6958 31.9623 23.7315 31.6477 23.9475 31.4757C24.4729 31.0574 25.0285 30.7199 25.5746 30.4536C25.8229 30.3326 26.1222 30.4357 26.2432 30.6839C26.3642 30.9322 26.2611 31.2315 26.0129 31.3525C25.525 31.5904 25.0326 31.89 24.5704 32.258C24.3543 32.43 24.0398 32.3943 23.8678 32.1783ZM27.0101 30.4022C26.9451 30.1338 27.1099 29.8636 27.3783 29.7985C27.7293 29.7135 28.0578 29.6596 28.3485 29.6353L28.3692 29.6336H28.39H29.3252C29.6013 29.6336 29.8252 29.8575 29.8252 30.1336C29.8252 30.4097 29.6013 30.6336 29.3252 30.6336H28.4114C28.1831 30.6538 27.9129 30.698 27.6138 30.7704C27.3454 30.8354 27.0751 30.6706 27.0101 30.4022ZM47.5934 30.1336C47.5934 30.4097 47.3695 30.6336 47.0934 30.6336H46.1582C45.8821 30.6336 45.6582 30.4097 45.6582 30.1336C45.6582 29.8575 45.8821 29.6336 46.1582 29.6336H47.0934C47.3695 29.6336 47.5934 29.8575 47.5934 30.1336ZM44.7879 30.1336C44.7879 30.4097 44.564 30.6336 44.2879 30.6336H42.4175C42.1414 30.6336 41.9175 30.4097 41.9175 30.1336C41.9175 29.8575 42.1414 29.6336 42.4175 29.6336H44.2879C44.564 29.6336 44.7879 29.8575 44.7879 30.1336ZM41.0472 30.1336C41.0472 30.4097 40.8233 30.6336 40.5472 30.6336H38.6769C38.4007 30.6336 38.1769 30.4097 38.1769 30.1336C38.1769 29.8575 38.4007 29.6336 38.6769 29.6336H40.5472C40.8233 29.6336 41.0472 29.8575 41.0472 30.1336ZM37.3065 30.1336C37.3065 30.4097 37.0827 30.6336 36.8065 30.6336H34.9362C34.66 30.6336 34.4362 30.4097 34.4362 30.1336C34.4362 29.8575 34.66 29.6336 34.9362 29.6336H36.8065C37.0827 29.6336 37.3065 29.8575 37.3065 30.1336ZM33.5658 30.1336C33.5658 30.4097 33.342 30.6336 33.0658 30.6336H31.1955C30.9194 30.6336 30.6955 30.4097 30.6955 30.1336C30.6955 29.8575 30.9194 29.6336 31.1955 29.6336H33.0658C33.342 29.6336 33.5658 29.8575 33.5658 30.1336ZM68.914 52.4542C69.1901 52.4542 69.414 52.2304 69.414 51.9542C69.414 51.622 69.3959 51.3014 69.3612 50.9921C69.3304 50.7177 69.083 50.5201 68.8086 50.5509C68.5342 50.5817 68.3367 50.8291 68.3675 51.1035C68.3979 51.3749 68.414 51.6583 68.414 51.9542C68.414 52.2304 68.6378 52.4542 68.914 52.4542ZM68.6189 49.7542C68.8764 49.6543 69.0041 49.3647 68.9043 49.1072C68.6575 48.4709 68.3331 47.9057 67.9573 47.4068C67.7912 47.1862 67.4777 47.1421 67.2571 47.3082C67.0365 47.4743 66.9924 47.7878 67.1585 48.0084C67.4819 48.4378 67.7602 48.9228 67.972 49.4688C68.0718 49.7262 68.3615 49.854 68.6189 49.7542ZM66.6822 46.7254C66.8542 46.5093 66.8185 46.1948 66.6025 46.0228C66.0771 45.6045 65.5215 45.267 64.9753 45.0007C64.7271 44.8797 64.4278 44.9828 64.3068 45.231C64.1858 45.4792 64.2889 45.7785 64.5371 45.8996C65.025 46.1374 65.5174 46.4371 65.9796 46.8051C66.1956 46.9771 66.5102 46.9414 66.6822 46.7254ZM63.5399 44.9493C63.6049 44.6809 63.4401 44.4106 63.1717 44.3456C62.8207 44.2606 62.4922 44.2066 62.2015 44.1824L62.1808 44.1807H62.16H61.1209C60.8448 44.1807 60.6209 44.4045 60.6209 44.6807C60.6209 44.9568 60.8448 45.1807 61.1209 45.1807H62.1385C62.3669 45.2009 62.6371 45.245 62.9362 45.3175C63.2046 45.3825 63.4749 45.2177 63.5399 44.9493ZM28.9095 44.1807C28.9092 44.1807 28.9089 44.1807 28.9086 44.1807H28.4112C28.1702 44.1598 27.8892 44.1211 27.5822 44.0587C27.3116 44.0036 27.0476 44.1784 26.9925 44.449C26.9375 44.7196 27.1123 44.9836 27.3829 45.0386C27.7366 45.1106 28.0636 45.1552 28.3485 45.1789L28.3692 45.1807H28.39L28.9095 45.1807L29.4291 45.1807C29.4294 45.1807 29.4297 45.1807 29.4301 45.1807H29.9486C30.2248 45.1807 30.4486 44.9568 30.4486 44.6807C30.4486 44.4045 30.2248 44.1807 29.9486 44.1807L29.4291 44.1807L28.9095 44.1807ZM32.0268 44.1807C32.0264 44.1807 32.0261 44.1807 32.0258 44.1807H31.5072C31.2311 44.1807 31.0072 44.4045 31.0072 44.6807C31.0072 44.9568 31.2311 45.1807 31.5072 45.1807L32.0268 45.1807L32.5463 45.1807C32.5466 45.1807 32.547 45.1807 32.5473 45.1807H34.1049C34.3811 45.1807 34.6049 44.9568 34.6049 44.6807C34.6049 44.4045 34.3811 44.1807 34.1049 44.1807L32.5463 44.1807L32.0268 44.1807ZM35.6831 44.6807C35.6831 44.9568 35.9069 45.1807 36.1831 45.1807H38.2612C38.5374 45.1807 38.7612 44.9568 38.7612 44.6807C38.7612 44.4045 38.5374 44.1807 38.2612 44.1807H36.1831C35.9069 44.1807 35.6831 44.4045 35.6831 44.6807ZM39.8394 44.6807C39.8394 44.9568 40.0632 45.1807 40.3394 45.1807H42.4175C42.6937 45.1807 42.9175 44.9568 42.9175 44.6807C42.9175 44.4045 42.6937 44.1807 42.4175 44.1807H40.3394C40.0632 44.1807 39.8394 44.4045 39.8394 44.6807ZM43.9957 44.6807C43.9957 44.9568 44.2195 45.1807 44.4957 45.1807H46.5738C46.85 45.1807 47.0738 44.9568 47.0738 44.6807C47.0738 44.4045 46.85 44.1807 46.5738 44.1807H44.4957C44.2195 44.1807 43.9957 44.4045 43.9957 44.6807ZM48.152 44.6807C48.152 44.9568 48.3759 45.1807 48.652 45.1807H50.7301C51.0063 45.1807 51.2301 44.9568 51.2301 44.6807C51.2301 44.4045 51.0063 44.1807 50.7301 44.1807H48.652C48.3759 44.1807 48.152 44.4045 48.152 44.6807ZM52.3083 44.6807C52.3083 44.9568 52.5322 45.1807 52.8083 45.1807H54.8865C55.1626 45.1807 55.3865 44.9568 55.3865 44.6807C55.3865 44.4045 55.1626 44.1807 54.8865 44.1807H52.8083C52.5322 44.1807 52.3083 44.4045 52.3083 44.6807ZM56.4646 44.6807C56.4646 44.9568 56.6885 45.1807 56.9646 45.1807H59.0428C59.3189 45.1807 59.5428 44.9568 59.5428 44.6807C59.5428 44.4045 59.3189 44.1807 59.0428 44.1807H56.9646C56.6885 44.1807 56.4646 44.4045 56.4646 44.6807ZM56.4646 81.0483C56.4646 80.7441 56.4507 80.4539 56.4243 80.1773C56.398 79.9024 56.5996 79.6583 56.8745 79.632C57.1494 79.6058 57.3935 79.8074 57.4198 80.0823C57.4493 80.3917 57.4646 80.7135 57.4646 81.0483C57.4646 81.3806 57.4465 81.7012 57.4118 82.0105C57.3811 82.2849 57.1337 82.4824 56.8592 82.4516C56.5848 82.4209 56.3873 82.1734 56.4181 81.899C56.4485 81.6276 56.4646 81.3442 56.4646 81.0483ZM56.6695 83.2484C56.927 83.3482 57.0548 83.6379 56.9549 83.8953C56.7082 84.5316 56.3837 85.0968 56.0079 85.5958C55.8418 85.8163 55.5283 85.8605 55.3077 85.6944C55.0872 85.5282 55.043 85.2147 55.2091 84.9942C55.5326 84.5647 55.8108 84.0798 56.0226 83.5338C56.1224 83.2763 56.4121 83.1485 56.6695 83.2484ZM54.7328 86.2772C54.9048 86.4932 54.8691 86.8078 54.6531 86.9798C54.1277 87.3981 53.5721 87.7356 53.026 88.0019C52.7778 88.1229 52.4784 88.0198 52.3574 87.7715C52.2364 87.5233 52.3395 87.224 52.5877 87.103C53.0756 86.8651 53.5681 86.5654 54.0302 86.1975C54.2463 86.0255 54.5608 86.0612 54.7328 86.2772ZM51.5905 88.0533C51.6555 88.3217 51.4907 88.5919 51.2223 88.6569C50.8713 88.742 50.5429 88.7959 50.2521 88.8202L50.2314 88.8219H50.2106H49.2235C48.9473 88.8219 48.7235 88.598 48.7235 88.3219C48.7235 88.0457 48.9473 87.8219 49.2235 87.8219H50.1892C50.4176 87.8017 50.6877 87.7575 50.9869 87.6851C51.2552 87.62 51.5255 87.7849 51.5905 88.0533ZM10.2257 88.3219C10.2257 88.0457 10.4496 87.8219 10.7257 87.8219H11.7128C11.989 87.8219 12.2128 88.0457 12.2128 88.3219C12.2128 88.598 11.989 88.8219 11.7128 88.8219H10.7257C10.4496 88.8219 10.2257 88.598 10.2257 88.3219ZM13.1871 88.3219C13.1871 88.0457 13.4109 87.8219 13.6871 87.8219H15.6613C15.9375 87.8219 16.1613 88.0457 16.1613 88.3219C16.1613 88.598 15.9375 88.8219 15.6613 88.8219H13.6871C13.4109 88.8219 13.1871 88.598 13.1871 88.3219ZM17.1356 88.3219C17.1356 88.0457 17.3594 87.8219 17.6356 87.8219H19.6098C19.886 87.8219 20.1098 88.0457 20.1098 88.3219C20.1098 88.598 19.886 88.8219 19.6098 88.8219H17.6356C17.3594 88.8219 17.1356 88.598 17.1356 88.3219ZM21.0841 88.3219C21.0841 88.0457 21.3079 87.8219 21.5841 87.8219H23.5583C23.8344 87.8219 24.0583 88.0457 24.0583 88.3219C24.0583 88.598 23.8344 88.8219 23.5583 88.8219H21.5841C21.3079 88.8219 21.0841 88.598 21.0841 88.3219ZM25.0325 88.3219C25.0325 88.0457 25.2564 87.8219 25.5325 87.8219H27.5068C27.7829 87.8219 28.0068 88.0457 28.0068 88.3219C28.0068 88.598 27.7829 88.8219 27.5068 88.8219H25.5325C25.2564 88.8219 25.0325 88.598 25.0325 88.3219ZM28.981 88.3219C28.981 88.0457 29.2049 87.8219 29.481 87.8219H31.4553C31.7314 87.8219 31.9553 88.0457 31.9553 88.3219C31.9553 88.598 31.7314 88.8219 31.4553 88.8219H29.481C29.2049 88.8219 28.981 88.598 28.981 88.3219ZM32.9295 88.3219C32.9295 88.0457 33.1534 87.8219 33.4295 87.8219H35.4038C35.6799 87.8219 35.9038 88.0457 35.9038 88.3219C35.9038 88.598 35.6799 88.8219 35.4038 88.8219H33.4295C33.1534 88.8219 32.9295 88.598 32.9295 88.3219ZM36.878 88.3219C36.878 88.0457 37.1019 87.8219 37.378 87.8219H39.3523C39.6284 87.8219 39.8523 88.0457 39.8523 88.3219C39.8523 88.598 39.6284 88.8219 39.3523 88.8219H37.378C37.1019 88.8219 36.878 88.598 36.878 88.3219ZM40.8265 88.3219C40.8265 88.0457 41.0504 87.8219 41.3265 87.8219H43.3008C43.5769 87.8219 43.8008 88.0457 43.8008 88.3219C43.8008 88.598 43.5769 88.8219 43.3008 88.8219H41.3265C41.0504 88.8219 40.8265 88.598 40.8265 88.3219ZM44.775 88.3219C44.775 88.0457 44.9989 87.8219 45.275 87.8219H47.2492C47.5254 87.8219 47.7492 88.0457 47.7492 88.3219C47.7492 88.598 47.5254 88.8219 47.2492 88.8219H45.275C44.9989 88.8219 44.775 88.598 44.775 88.3219ZM27.89 66.5013L27.89 66.5027C27.8901 66.837 27.9054 67.1584 27.9349 67.4674C27.9611 67.7423 28.2052 67.9438 28.4801 67.9176C28.755 67.8914 28.9566 67.6473 28.9303 67.3724C28.9039 67.0957 28.89 66.8056 28.89 66.5013V66.4999C28.8901 66.2045 28.9061 65.9216 28.9365 65.6506C28.9673 65.3762 28.7698 65.1288 28.4954 65.098C28.221 65.0672 27.9735 65.2647 27.9428 65.5392C27.9081 65.8484 27.89 66.1691 27.89 66.5013ZM28.3997 63.6543C28.2998 63.9117 28.4276 64.2014 28.6851 64.3012C28.9425 64.4011 29.2322 64.2733 29.332 64.0159C29.5438 63.4699 29.822 62.9849 30.1455 62.5555C30.3116 62.3349 30.2675 62.0214 30.0469 61.8553C29.8263 61.6891 29.5128 61.7333 29.3467 61.9539C28.9709 62.4528 28.6464 63.018 28.3997 63.6543ZM30.7015 60.5698C30.4855 60.7418 30.4498 61.0564 30.6218 61.2724C30.7938 61.4885 31.1083 61.5242 31.3244 61.3522C31.7866 60.9842 32.279 60.6845 32.7669 60.4466C33.0151 60.3256 33.1182 60.0263 32.9972 59.7781C32.8762 59.5299 32.5769 59.4267 32.3286 59.5478C31.7825 59.814 31.2269 60.1516 30.7015 60.5698ZM34.1323 58.8927C33.8639 58.9577 33.6991 59.228 33.7641 59.4963C33.8291 59.7647 34.0994 59.9296 34.3678 59.8646C34.6669 59.7921 34.9371 59.748 35.1654 59.7277H36.2264C36.5025 59.7277 36.7264 59.5039 36.7264 59.2277C36.7264 58.9516 36.5025 58.7277 36.2264 58.7277H35.144H35.1232L35.1025 58.7295C34.8117 58.7537 34.4833 58.8077 34.1323 58.8927ZM61.1209 59.7277C61.3971 59.7277 61.6209 59.5039 61.6209 59.2277C61.6209 58.9516 61.3971 58.7277 61.1209 58.7277H60.0385C59.7624 58.7277 59.5385 58.9516 59.5385 59.2277C59.5385 59.5039 59.7624 59.7277 60.0385 59.7277H61.1209ZM57.8738 59.7277C58.1499 59.7277 58.3738 59.5039 58.3738 59.2277C58.3738 58.9516 58.1499 58.7277 57.8738 58.7277H55.7091C55.4329 58.7277 55.2091 58.9516 55.2091 59.2277C55.2091 59.5039 55.4329 59.7277 55.7091 59.7277H57.8738ZM53.5443 59.7277C53.8205 59.7277 54.0443 59.5039 54.0443 59.2277C54.0443 58.9516 53.8205 58.7277 53.5443 58.7277H51.3796C51.1034 58.7277 50.8796 58.9516 50.8796 59.2277C50.8796 59.5039 51.1034 59.7277 51.3796 59.7277H53.5443ZM49.2148 59.7277C49.491 59.7277 49.7148 59.5039 49.7148 59.2277C49.7148 58.9516 49.491 58.7277 49.2148 58.7277H47.0501C46.7739 58.7277 46.5501 58.9516 46.5501 59.2277C46.5501 59.5039 46.7739 59.7277 47.0501 59.7277H49.2148ZM44.8853 59.7277C45.1615 59.7277 45.3853 59.5039 45.3853 59.2277C45.3853 58.9516 45.1615 58.7277 44.8853 58.7277H42.7206C42.4445 58.7277 42.2206 58.9516 42.2206 59.2277C42.2206 59.5039 42.4445 59.7277 42.7206 59.7277H44.8853ZM40.5559 59.7277C40.832 59.7277 41.0559 59.5039 41.0559 59.2277C41.0559 58.9516 40.832 58.7277 40.5559 58.7277H38.3911C38.115 58.7277 37.8911 58.9516 37.8911 59.2277C37.8911 59.5039 38.115 59.7277 38.3911 59.7277H40.5559ZM57.0161 78.1753C57.1061 78.4364 56.9674 78.721 56.7063 78.811C56.4452 78.9009 56.1606 78.7622 56.0707 78.5011C55.8727 77.9268 55.6096 77.4298 55.3028 76.9994C55.1426 76.7745 55.195 76.4623 55.4198 76.3021C55.6447 76.1418 55.9569 76.1942 56.1172 76.4191C56.479 76.9268 56.7866 77.5093 57.0161 78.1753ZM54.7493 74.9967C54.967 75.1665 55.0059 75.4807 54.8361 75.6985C54.6663 75.9162 54.3521 75.9551 54.1344 75.7853C53.6673 75.4211 53.165 75.1364 52.6642 74.9165C52.4114 74.8055 52.2964 74.5105 52.4074 74.2577C52.5185 74.0048 52.8134 73.8899 53.0663 74.0009C53.6317 74.2492 54.2077 74.5744 54.7493 74.9967ZM51.2177 73.4169C51.4883 73.4719 51.6631 73.7359 51.6081 74.0065C51.553 74.2771 51.2891 74.4518 51.0185 74.3968C50.7114 74.3344 50.4305 74.2957 50.1894 74.2748H49.3014C49.0253 74.2748 48.8014 74.051 48.8014 73.7748C48.8014 73.4987 49.0253 73.2748 49.3014 73.2748H50.2106H50.2314L50.2521 73.2765C50.537 73.3003 50.864 73.3449 51.2177 73.4169ZM35.144 74.2748H35.6616L35.6635 74.2748L36.1831 74.2748L36.5727 74.2748C36.8489 74.2748 37.0727 74.051 37.0727 73.7748C37.0727 73.4987 36.8489 73.2748 36.5727 73.2748H36.1851L36.1831 73.2748L35.6635 73.2748L35.1652 73.2748C34.9241 73.2539 34.6432 73.2153 34.3362 73.1528C34.0656 73.0978 33.8016 73.2725 33.7465 73.5431C33.6915 73.8137 33.8663 74.0777 34.1369 74.1328C34.4906 74.2047 34.8176 74.2493 35.1025 74.2731L35.1232 74.2748H35.144ZM38.2612 74.2748H38.3891L38.3911 74.2748L39.3003 74.2748L40.2095 74.2748C40.4856 74.2748 40.7095 74.051 40.7095 73.7748C40.7095 73.4987 40.4856 73.2748 40.2095 73.2748H39.3023L39.3003 73.2748L38.3911 73.2748L38.2612 73.2748C37.9851 73.2748 37.7612 73.4987 37.7612 73.7748C37.7612 74.051 37.9851 74.2748 38.2612 74.2748ZM42.0279 74.2748C41.7517 74.2748 41.5279 74.051 41.5279 73.7748C41.5279 73.4987 41.7517 73.2748 42.0279 73.2748H43.8463C44.1224 73.2748 44.3463 73.4987 44.3463 73.7748C44.3463 74.051 44.1224 74.2748 43.8463 74.2748H42.0279ZM45.6646 74.2748C45.3885 74.2748 45.1646 74.051 45.1646 73.7748C45.1646 73.4987 45.3885 73.2748 45.6646 73.2748H47.483C47.7592 73.2748 47.983 73.4987 47.983 73.7748C47.983 74.051 47.7592 74.2748 47.483 74.2748H45.6646ZM28.6483 68.7387C28.3872 68.8286 28.2485 69.1132 28.3385 69.3743C28.568 70.0403 28.8756 70.6228 29.2374 71.1306C29.3977 71.3554 29.7099 71.4078 29.9348 71.2476C30.1597 71.0873 30.212 70.7751 30.0518 70.5502C29.745 70.1198 29.4819 69.6228 29.2839 69.0485C29.194 68.7874 28.9094 68.6487 28.6483 68.7387ZM30.5185 71.8512C30.3487 72.0689 30.3876 72.3831 30.6053 72.5529C31.1469 72.9752 31.7229 73.3004 32.2883 73.5487C32.5412 73.6598 32.8362 73.5448 32.9472 73.2919C33.0582 73.0391 32.9432 72.7441 32.6904 72.6331C32.1896 72.4132 31.6873 72.1286 31.2203 71.7643C31.0025 71.5945 30.6883 71.6334 30.5185 71.8512ZM21.5845 40.2802C21.4945 40.0191 21.6332 39.7345 21.8943 39.6445C22.1554 39.5546 22.44 39.6933 22.5299 39.9543C22.7279 40.5287 22.9911 41.0257 23.2978 41.4561C23.458 41.681 23.4057 41.9932 23.1808 42.1534C22.9559 42.3137 22.6437 42.2613 22.4834 42.0364C22.1216 41.5287 21.814 40.9461 21.5845 40.2802ZM23.8513 43.4588C23.6336 43.289 23.5947 42.9748 23.7645 42.757C23.9343 42.5393 24.2485 42.5004 24.4663 42.6702C24.9333 43.0344 25.4356 43.3191 25.9364 43.539C26.1892 43.65 26.3042 43.945 26.1932 44.1978C26.0822 44.4506 25.7872 44.5656 25.5344 44.4546C24.9689 44.2063 24.3929 43.8811 23.8513 43.4588Z" fill="black"/>
<path d="M10.2061 89.9994C13.0755 89.9994 15.4015 88.9258 15.4015 87.6015C15.4015 86.2772 13.0755 85.2036 10.2061 85.2036C7.3368 85.2036 5.01074 86.2772 5.01074 87.6015C5.01074 88.9258 7.3368 89.9994 10.2061 89.9994Z" fill="black"/>
<path d="M17.6467 60.4769C13.741 56.6898 7.53387 56.6898 3.62815 60.4769C0.290781 63.7125 -0.397278 68.812 1.96338 72.8173L10.6374 87.5384L19.3126 72.8173C21.6721 68.8131 20.9829 63.7136 17.6467 60.4769ZM10.6363 72.6897C7.85609 72.6897 5.60171 70.4354 5.60171 67.6551C5.60171 64.8749 7.85609 62.6206 10.6363 62.6206C13.4165 62.6206 15.6709 64.8749 15.6709 67.6551C15.6709 70.4354 13.4176 72.6897 10.6363 72.6897Z" fill="#3E7DEB"/>
<path d="M10.6363 88.0979C10.4383 88.0979 10.2548 87.9927 10.1541 87.8227L1.47896 73.1015C-1.02043 68.8591 -0.297684 63.5034 3.2366 60.0754C7.38286 56.0533 13.8853 56.0511 18.0338 60.0754C21.5681 63.5023 22.2919 68.8591 19.7914 73.1015L11.1174 87.8227C11.0178 87.9927 10.8343 88.0979 10.6363 88.0979ZM10.6352 58.179C8.25328 58.179 5.87136 59.0797 4.01528 60.8787C0.853557 63.9453 0.20689 68.7382 2.44337 72.5332L10.6363 86.4365L18.8282 72.5332C21.0646 68.7382 20.418 63.9453 17.2562 60.8787C15.4002 59.0797 13.0182 58.179 10.6352 58.179ZM10.6352 73.2492C7.55068 73.2492 5.04121 70.7398 5.04121 67.6552C5.04121 64.5707 7.55068 62.0612 10.6352 62.0612C13.7197 62.0612 16.2292 64.5707 16.2292 67.6552C16.2292 70.7398 13.7197 73.2492 10.6352 73.2492ZM10.6352 63.18C8.16713 63.18 6.16001 65.1872 6.16001 67.6552C6.16001 70.1233 8.16713 72.1304 10.6352 72.1304C13.1033 72.1304 15.1104 70.1233 15.1104 67.6552C15.1104 65.1872 13.1033 63.18 10.6352 63.18Z" fill="#263238"/>
<path d="M46.5737 33.2508C49.443 33.2508 51.7691 32.0878 51.7691 30.6531C51.7691 29.2184 49.443 28.0554 46.5737 28.0554C43.7043 28.0554 41.3783 29.2184 41.3783 30.6531C41.3783 32.0878 43.7043 33.2508 46.5737 33.2508Z" fill="black"/>
<path d="M53.567 3.41902C49.6612 -0.368108 43.4542 -0.368108 39.5484 3.41902C36.2111 6.65458 35.523 11.7541 37.8837 15.7593L46.5577 30.4805L55.2329 15.7593C57.5924 11.7552 56.9032 6.6557 53.567 3.41902ZM46.5566 15.6318C43.7764 15.6318 41.522 13.3774 41.522 10.5972C41.522 7.81701 43.7764 5.56264 46.5566 5.56264C49.3368 5.56264 51.5912 7.81701 51.5912 10.5972C51.5912 13.3774 49.3379 15.6318 46.5566 15.6318Z" fill="#3E7DEB"/>
<path d="M46.5577 31.0399C46.3597 31.0399 46.1762 30.9347 46.0755 30.7647L37.4003 16.0435C34.901 11.8011 35.6237 6.44539 39.158 3.0174C43.3042 -1.00468 49.8067 -1.00692 53.9552 3.0174C57.4895 6.44427 58.2133 11.8011 55.7128 16.0435L47.0388 30.7647C46.9392 30.9347 46.7557 31.0399 46.5577 31.0399ZM46.5566 1.12103C44.1747 1.12103 41.7927 2.02167 39.9367 3.82069C36.7749 6.88732 36.1283 11.6802 38.3648 15.4752L46.5577 29.3785L54.7495 15.4752C56.986 11.6802 56.3393 6.88732 53.1776 3.82069C51.3215 2.02167 48.9396 1.12103 46.5566 1.12103ZM46.5566 16.1912C43.4721 16.1912 40.9626 13.6818 40.9626 10.5972C40.9626 7.51272 43.4721 5.00326 46.5566 5.00326C49.6411 5.00326 52.1506 7.51272 52.1506 10.5972C52.1506 13.6818 49.6411 16.1912 46.5566 16.1912ZM46.5566 6.12206C44.0885 6.12206 42.0814 8.12918 42.0814 10.5972C42.0814 13.0653 44.0885 15.0724 46.5566 15.0724C49.0247 15.0724 51.0318 13.0653 51.0318 10.5972C51.0318 8.12918 49.0247 6.12206 46.5566 6.12206Z" fill="#263238"/>
<path d="M72.0507 51.9538C72.0507 54.547 69.9485 56.6492 67.3553 56.6492C64.7621 56.6492 62.6599 54.547 62.6599 51.9538C62.6599 49.3606 64.7621 47.2584 67.3553 47.2584C69.9485 47.2584 72.0507 49.3606 72.0507 51.9538Z" fill="#3E7EEB" stroke="black"/>
<path d="M34.6439 66.5009C34.6439 69.0941 32.5417 71.1963 29.9486 71.1963C27.3554 71.1963 25.2532 69.0941 25.2532 66.5009C25.2532 63.9077 27.3554 61.8055 29.9486 61.8055C32.5417 61.8055 34.6439 63.9077 34.6439 66.5009Z" fill="#3E7EEB" stroke="black"/>
</svg>
