<svg width="90" height="91" viewBox="0 0 90 91" fill="none" xmlns="http://www.w3.org/2000/svg">
<path d="M23.2031 5.42188H17.5781C17.19 5.42188 16.875 5.10687 16.875 4.71875C16.875 4.33062 17.19 4.01562 17.5781 4.01562H23.2031C23.5912 4.01562 23.9062 4.33062 23.9062 4.71875C23.9062 5.10687 23.5912 5.42188 23.2031 5.42188Z" fill="#263238"/>
<path d="M20.3906 8.23438C20.0025 8.23438 19.6875 7.91937 19.6875 7.53125V1.90625C19.6875 1.51812 20.0025 1.20312 20.3906 1.20312C20.7787 1.20312 21.0938 1.51812 21.0938 1.90625V7.53125C21.0938 7.91937 20.7787 8.23438 20.3906 8.23438Z" fill="#263238"/>
<path d="M15.4688 11.75H9.84375C9.45562 11.75 9.14062 11.435 9.14062 11.0469C9.14062 10.6587 9.45562 10.3438 9.84375 10.3438H15.4688C15.8569 10.3438 16.1719 10.6587 16.1719 11.0469C16.1719 11.435 15.8569 11.75 15.4688 11.75Z" fill="#263238"/>
<path d="M12.6562 14.5625C12.2681 14.5625 11.9531 14.2475 11.9531 13.8594V8.23438C11.9531 7.84625 12.2681 7.53125 12.6562 7.53125C13.0444 7.53125 13.3594 7.84625 13.3594 8.23438V13.8594C13.3594 14.2475 13.0444 14.5625 12.6562 14.5625Z" fill="#263238"/>
<path d="M67.5 19.4844H18.2812C17.8931 19.4844 17.5781 19.1694 17.5781 18.7812C17.5781 18.3931 17.8931 18.0781 18.2812 18.0781H67.5C67.8881 18.0781 68.2031 18.3931 68.2031 18.7812C68.2031 19.1694 67.8881 19.4844 67.5 19.4844Z" fill="#263238"/>
<path d="M60.0919 82.7656H18.2812C17.8931 82.7656 17.5781 82.4506 17.5781 82.0625C17.5781 81.6744 17.8931 81.3594 18.2812 81.3594H60.0933C60.4814 81.3594 60.7964 81.6744 60.7964 82.0625C60.7964 82.4506 60.4814 82.7656 60.0919 82.7656Z" fill="#263238"/>
<path d="M73.125 39.1719C72.7369 39.1719 72.4219 38.8569 72.4219 38.4688V18.7812C72.4219 18.3931 72.7369 18.0781 73.125 18.0781C73.5131 18.0781 73.8281 18.3931 73.8281 18.7812V38.4688C73.8281 38.8569 73.5131 39.1719 73.125 39.1719Z" fill="#263238"/>
<path d="M73.125 44.7969C72.7369 44.7969 72.4219 44.4819 72.4219 44.0938V41.2812C72.4219 40.8931 72.7369 40.5781 73.125 40.5781C73.5131 40.5781 73.8281 40.8931 73.8281 41.2812V44.0938C73.8281 44.4819 73.5131 44.7969 73.125 44.7969Z" fill="#263238"/>
<path d="M76.3101 55.0794C71.4009 50.3192 63.599 50.3192 58.6898 55.0794C54.495 59.1463 53.6301 65.556 56.5973 70.5903L67.5 89.0938L78.404 70.5903C81.3698 65.5574 80.5036 59.1477 76.3101 55.0794ZM67.4986 70.43C64.004 70.43 61.1704 67.5964 61.1704 64.1019C61.1704 60.6074 64.004 57.7738 67.4986 57.7738C70.9931 57.7738 73.8267 60.6074 73.8267 64.1019C73.8267 67.5964 70.9945 70.43 67.4986 70.43Z" fill="#FF7750"/>
<path d="M67.5 89.7969C67.2511 89.7969 67.0204 89.6647 66.8939 89.4509L55.9898 70.9475C52.8482 65.615 53.7567 58.8833 58.199 54.5745C63.4106 49.519 71.5837 49.5162 76.7981 54.5745C81.2404 58.8819 82.1503 65.615 79.0073 70.9475L68.1047 89.4509C67.9795 89.6647 67.7489 89.7969 67.5 89.7969ZM67.4986 52.1909C64.5047 52.1909 61.5108 53.323 59.1778 55.5842C55.2037 59.4387 54.3909 65.4631 57.202 70.2331L67.5 87.7086L77.7965 70.2331C80.6076 65.4631 79.7948 59.4387 75.8208 55.5842C73.4878 53.323 70.4939 52.1909 67.4986 52.1909ZM67.4986 71.1331C63.6215 71.1331 60.4673 67.9789 60.4673 64.1019C60.4673 60.2248 63.6215 57.0706 67.4986 57.0706C71.3756 57.0706 74.5298 60.2248 74.5298 64.1019C74.5298 67.9789 71.3756 71.1331 67.4986 71.1331ZM67.4986 58.4769C64.3964 58.4769 61.8736 60.9997 61.8736 64.1019C61.8736 67.204 64.3964 69.7269 67.4986 69.7269C70.6008 69.7269 73.1236 67.204 73.1236 64.1019C73.1236 60.9997 70.6008 58.4769 67.4986 58.4769Z" fill="#263238"/>
<path d="M60.4688 89.7969H25.3125C21.0473 89.7969 17.5781 86.3277 17.5781 82.0625V18.7812C17.5781 14.5161 21.0473 11.0469 25.3125 11.0469H60.4688C64.7325 11.0469 68.2031 14.5161 68.2031 18.7812V48.6697C68.2031 49.0578 67.8881 49.3728 67.5 49.3728C67.1119 49.3728 66.7969 49.0578 66.7969 48.6697V18.7812C66.7969 15.2923 63.9577 12.4531 60.4688 12.4531H25.3125C21.8236 12.4531 18.9844 15.2923 18.9844 18.7812V82.0625C18.9844 85.5514 21.8236 88.3906 25.3125 88.3906H60.4688C61.4686 88.3906 62.4572 88.1347 63.4092 87.6298C63.7523 87.4484 64.177 87.5778 64.3598 87.9223C64.5427 88.2669 64.4119 88.6916 64.0688 88.873C62.91 89.4861 61.6992 89.7969 60.4688 89.7969Z" fill="#263238"/>
<path d="M67.5 44.0938V39.875H30.9375V18.7812H26.7188V56.0469H40.7812V82.0625H45V51.8281H30.9375V44.0938H67.5Z" fill="#68AEF2"/>
<path d="M45 82.7656H40.7812C40.3931 82.7656 40.0781 82.4506 40.0781 82.0625V56.75H26.7188C26.3306 56.75 26.0156 56.435 26.0156 56.0469V18.7812C26.0156 18.3931 26.3306 18.0781 26.7188 18.0781H30.9375C31.3256 18.0781 31.6406 18.3931 31.6406 18.7812V39.1719H67.5C67.8881 39.1719 68.2031 39.4869 68.2031 39.875V44.0938C68.2031 44.4819 67.8881 44.7969 67.5 44.7969H31.6406V51.125H45C45.3881 51.125 45.7031 51.44 45.7031 51.8281V82.0625C45.7031 82.4506 45.3881 82.7656 45 82.7656ZM41.4844 81.3594H44.2969V52.5312H30.9375C30.5494 52.5312 30.2344 52.2163 30.2344 51.8281V44.0938C30.2344 43.7056 30.5494 43.3906 30.9375 43.3906H66.7969V40.5781H30.9375C30.5494 40.5781 30.2344 40.2631 30.2344 39.875V19.4844H27.4219V55.3438H40.7812C41.1694 55.3438 41.4844 55.6587 41.4844 56.0469V81.3594Z" fill="#3E7DEB"/>
<path d="M56.9531 32.8438C58.8948 32.8438 60.4688 31.2698 60.4688 29.3281C60.4688 27.3865 58.8948 25.8125 56.9531 25.8125C55.0115 25.8125 53.4375 27.3865 53.4375 29.3281C53.4375 31.2698 55.0115 32.8438 56.9531 32.8438Z" fill="#68AEF2"/>
<path d="M56.9531 36.3594C53.0761 36.3594 49.9219 33.2052 49.9219 29.3281C49.9219 25.4511 53.0761 22.2969 56.9531 22.2969C60.8302 22.2969 63.9844 25.4511 63.9844 29.3281C63.9844 33.2052 60.8302 36.3594 56.9531 36.3594ZM56.9531 23.7031C53.8509 23.7031 51.3281 26.2259 51.3281 29.3281C51.3281 32.4303 53.8509 34.9531 56.9531 34.9531C60.0553 34.9531 62.5781 32.4303 62.5781 29.3281C62.5781 26.2259 60.0553 23.7031 56.9531 23.7031Z" fill="#263238"/>
</svg>
